<svg width="40" height="41" viewBox="0 0 40 41" fill="none" xmlns="http://www.w3.org/2000/svg">
<g clip-path="url(#clip0_2_283)">
<rect y="0.5" width="40" height="40" rx="20" fill="url(#paint0_linear_2_283)"/>
<path d="M16.4391 28.3499C17.5938 26.4299 20.2449 22.7497 26.5573 17.5784C36.0827 9.77509 27.0926 2.63765 17.4348 6.43902C16.4016 6.84573 13.5387 5.21761 10.8867 6.93284C9.17591 8.0393 9.84169 8.90642 9.17557 9.77355C8.50944 10.6407 5.94132 10.5896 5.37872 12.8412C5.04552 14.1752 5.96759 15.5725 5.84426 16.5765C5.72093 17.5806 4.74754 18.4856 4.7011 19.8111C4.681 20.3709 4.77138 20.9292 4.96708 21.4541C5.16278 21.979 5.45997 22.4602 5.84167 22.8702C6.22337 23.2803 6.68211 23.6111 7.19168 23.8438C7.70125 24.0765 8.25167 24.2065 8.81151 24.2265C8.81608 25.3332 9.24823 26.3954 10.0176 27.1909C10.787 27.9865 11.8341 28.4539 12.9401 28.4955C13.6493 28.5214 14.3536 28.3689 14.9885 28.0518C15.6185 28.6324 16.1592 28.815 16.4391 28.3499Z" fill="url(#paint1_linear_2_283)"/>
<path d="M18.8 5.96668C17.1579 7.02002 15.1263 10.4747 16.018 15.1122C16.2125 16.124 15.6047 16.427 15.0847 15.1788C13.5157 11.4134 13.3339 8.01748 16.018 6.39308C16.4847 6.11215 16.7513 6.33975 17.0847 6.31215C17.7187 6.25962 18.5723 5.81042 18.8 5.96668Z" fill="url(#paint2_linear_2_283)"/>
<path d="M16.6668 26.3667C16.6668 25.1667 16.626 19.2478 16.628 19.1478C13.3334 19.6334 13.4001 13.3667 16.7334 14.9C17.4668 15.3667 19.5334 14.9 19.3334 11.0334C22.9334 14.9 27.113 10.3902 27.4714 14.0651C27.9609 19.0831 27.4685 24.3346 24.35 24.335C24.0088 24.3308 23.6687 24.2968 23.3334 24.2334V26.3667C23.3334 27.7 25.7334 28.3667 25.7334 28.3667C25.7334 28.3667 21.5878 32.2734 19.8668 32.2518C18.1457 32.2302 14.2668 28.3667 14.2668 28.3667C14.2668 28.3667 16.6668 27.7 16.6668 26.3667Z" fill="url(#paint3_linear_2_283)"/>
<g style="mix-blend-mode:multiply">
<path d="M23.3331 24.2327C21.679 23.8658 20.1115 23.1822 18.7173 22.2195C18.7173 22.2195 19.8677 25.0319 23.3289 25.5655L23.3331 24.2327Z" fill="#FFDBC9"/>
</g>
<path d="M32.2666 32.3667C33.2339 34.5163 33.7333 41.0333 33.7333 41.0333H6.2666C6.2666 41.0333 6.76593 34.5163 7.73327 32.3667C8.58073 30.4836 14.1651 28.3215 15.8017 27.7C16.7466 28.7571 18.1007 29.4333 19.9999 29.4333C21.8991 29.4333 23.2533 28.7571 24.1982 27.7C25.8347 28.3215 31.4191 30.4836 32.2666 32.3667Z" fill="url(#paint4_linear_2_283)"/>
</g>
<defs>
<linearGradient id="paint0_linear_2_283" x1="20" y1="40.5" x2="20" y2="0.5" gradientUnits="userSpaceOnUse">
<stop stop-color="#FFC9B3"/>
<stop offset="1" stop-color="#FFD2C2"/>
</linearGradient>
<linearGradient id="paint1_linear_2_283" x1="17.1942" y1="28.6554" x2="18.0155" y2="5.21216" gradientUnits="userSpaceOnUse">
<stop stop-color="#E6864E"/>
<stop offset="1" stop-color="#E67240"/>
</linearGradient>
<linearGradient id="paint2_linear_2_283" x1="16.3719" y1="5.93384" x2="16.3719" y2="15.9986" gradientUnits="userSpaceOnUse">
<stop stop-color="#1D0024"/>
<stop offset="1" stop-color="#100014"/>
</linearGradient>
<linearGradient id="paint3_linear_2_283" x1="20.9147" y1="11.0334" x2="20.9147" y2="32.2518" gradientUnits="userSpaceOnUse">
<stop stop-color="#FFE0CC"/>
<stop offset="1" stop-color="#FFEADB"/>
</linearGradient>
<linearGradient id="paint4_linear_2_283" x1="19.9999" y1="27.7" x2="19.9999" y2="41.0333" gradientUnits="userSpaceOnUse">
<stop stop-color="#130027"/>
<stop offset="1" stop-color="#130017"/>
</linearGradient>
<clipPath id="clip0_2_283">
<rect y="0.5" width="40" height="40" rx="20" fill="white"/>
</clipPath>
</defs>
</svg>
