<svg width="24" height="19" viewBox="0 0 24 19" fill="none" xmlns="http://www.w3.org/2000/svg">
<path d="M22.4084 10.3224C21.8564 10.6149 21.0888 10.8342 20.1019 10.9768C18.7202 11.1741 17.704 11.1266 17.0497 10.8269C16.3478 10.5345 15.9275 9.88746 15.7849 8.88589L15.6533 7.96109C15.5217 7.03628 15.7264 6.33811 16.2674 5.86657C16.8048 5.35482 17.7625 5.00025 19.1442 4.80286C20.1567 4.65665 20.9865 4.6603 21.6335 4.81017C21.2058 3.87806 20.6063 3.12871 19.8314 2.5731C18.1134 1.3449 15.5327 0.727142 12.093 0.727142C8.4084 0.727142 5.76924 1.40338 4.17185 2.75586C2.57446 3.98406 1.77759 6.07492 1.77759 9.02845V11.9783C1.77759 15.1768 -0.229196 15.089 2.00788 16.4269C4.08412 17.7647 8.59483 18.2728 12.2794 18.2728C15.964 18.2728 20.292 17.7647 22.3645 16.4269C24.4408 14.9574 22.4084 15.0525 22.4084 11.9783V10.3261V10.3224ZM13.7452 10.889C13.2006 11.3606 12.2648 11.6932 10.9269 11.8833C9.54522 12.0807 8.52903 12.0331 7.87472 11.7334C7.17289 11.441 6.75253 10.794 6.60997 9.79242L6.47838 8.86761C6.34678 7.94281 6.55148 7.24464 7.09248 6.7731C7.62981 6.26135 8.58752 5.90678 9.96924 5.70939C11.2596 5.52297 12.2538 5.5778 12.952 5.87022C13.6538 6.16265 14.0705 6.79137 14.2094 7.75639L14.341 8.68119C14.4799 9.6462 14.2789 10.3809 13.7416 10.8927L13.7452 10.889Z" fill="#6D4D64"/>
</svg>
