<svg width="120" height="22" viewBox="0 0 120 22" fill="none" xmlns="http://www.w3.org/2000/svg">
<path fill-rule="evenodd" clip-rule="evenodd" d="M120 12.9501C120 14.9131 119.298 16.6018 117.884 18.0055C116.498 19.4055 114.824 20.1073 112.846 20.1073C110.869 20.1073 109.176 19.4055 107.776 18.0055C106.376 16.6055 105.675 14.9167 105.675 12.9501C105.675 10.9836 106.376 9.28016 107.776 7.89478C109.176 6.48016 110.865 5.77833 112.846 5.77833C114.246 5.77833 115.511 6.12924 116.637 6.84569V0.5H120V12.9501ZM112.846 9.18878C111.812 9.18878 110.927 9.55431 110.182 10.2854C109.451 11.0165 109.085 11.9157 109.085 12.9501C109.085 13.9846 109.451 14.8546 110.182 15.6003C110.927 16.3313 111.812 16.6969 112.846 16.6969C113.881 16.6969 114.766 16.3313 115.497 15.6003C116.228 14.8546 116.579 13.97 116.579 12.9501C116.579 11.9303 116.228 11.0165 115.497 10.2854C114.766 9.55431 113.885 9.18878 112.846 9.18878ZM43.5781 5.79653C45.223 5.79653 46.6084 6.37407 47.7489 7.53282C48.9076 8.69157 49.4852 10.0733 49.4852 11.7182V20.1036H46.1515V11.7182C46.1515 11.0018 45.9066 10.395 45.3912 9.89052C44.905 9.38974 44.2946 9.14483 43.5781 9.14483C42.8617 9.14483 42.2695 9.38974 41.7651 9.89052C41.2606 10.3913 41.0047 11.0018 41.0047 11.7182V20.1036H37.6272V11.7182C37.6272 11.0018 37.3823 10.395 36.8815 9.89052C36.3807 9.38609 35.7703 9.14483 35.0538 9.14483C34.3374 9.14483 33.7598 9.38974 33.2408 9.89052C32.7546 10.3913 32.4951 11.0018 32.4951 11.7182V20.1036H29.1468V11.7182C29.1468 10.0733 29.7243 8.68791 30.8831 7.53282C32.0418 6.37407 33.4418 5.79653 35.0538 5.79653C36.6658 5.79653 38.1609 6.3887 39.316 7.60958C40.4893 6.39235 41.904 5.79653 43.5781 5.79653ZM53.4304 18.0054C52.0303 16.6054 51.3139 14.9166 51.3139 12.9501C51.3139 10.9835 52.0303 9.29836 53.4304 7.91298C54.8303 6.49836 56.5045 5.79653 58.4674 5.79653C60.4304 5.79653 62.1191 6.49836 63.5191 7.91298C64.9191 9.29836 65.621 10.9725 65.621 12.9501C65.621 14.9276 64.9191 16.6018 63.5191 18.0054C62.1191 19.4091 60.445 20.1072 58.4674 20.1072C56.4899 20.1072 54.8303 19.4054 53.4304 18.0054ZM55.821 10.3036C55.1045 11.0346 54.739 11.9156 54.739 12.9537C54.739 13.9918 55.1045 14.8581 55.821 15.6038C56.5666 16.3349 57.4512 16.7004 58.4711 16.7004C59.4909 16.7004 60.3901 16.3349 61.1212 15.6038C61.8523 14.8581 62.2178 13.9736 62.2178 12.9537C62.2178 11.9339 61.8523 11.0346 61.1212 10.3036C60.3901 9.57251 59.5092 9.20697 58.4711 9.20697C57.433 9.20697 56.5666 9.57251 55.821 10.3036ZM79.5667 7.88374C78.1818 6.48052 76.5083 5.79696 74.5608 5.79653C72.6132 5.79696 70.9251 6.49879 69.5401 7.88374C68.1547 9.26911 67.4529 10.9433 67.4529 12.9062V20.1072H70.8341V12.9062C70.8341 11.8717 71.2033 11.0054 71.9307 10.2743C72.6581 9.54327 73.5427 9.19235 74.5626 9.19235C75.5824 9.19235 76.4487 9.54692 77.1798 10.2743C77.9109 11.0018 78.2764 11.8717 78.2764 12.9062V20.1072H81.654V12.9062C81.654 10.9433 80.9668 9.26911 79.5667 7.88374ZM85.5959 18.0054C84.1959 16.6054 83.4794 14.9166 83.4794 12.9501C83.4794 10.9835 84.1959 9.29836 85.5959 7.91298C86.9959 6.49836 88.67 5.79653 90.6329 5.79653C92.5959 5.79653 94.2846 6.49836 95.6846 7.91298C97.0846 9.29836 97.7865 10.9725 97.7865 12.9501C97.7865 14.9276 97.0846 16.6018 95.6846 18.0054C94.2846 19.4091 92.6105 20.1072 90.6329 20.1072C88.6554 20.1072 86.9959 19.4054 85.5959 18.0054ZM87.9865 10.3036C87.27 11.0346 86.9045 11.9156 86.9045 12.9537C86.9045 13.9918 87.27 14.8581 87.9865 15.6038C88.7322 16.3349 89.6168 16.7004 90.6366 16.7004C91.6564 16.7004 92.5557 16.3349 93.2867 15.6038C94.0178 14.8581 94.3833 13.9736 94.3833 12.9537C94.3833 11.9339 94.0178 11.0346 93.2867 10.3036C92.5557 9.57251 91.6747 9.20697 90.6366 9.20697C89.5985 9.20697 88.7322 9.57251 87.9865 10.3036ZM100.059 7.7266H103.422V20.1073H100.059V7.7266ZM19.1517 14.4304C20.1386 14.2879 20.9063 14.0685 21.4582 13.7761V13.7798V15.432C21.4582 16.7391 21.8257 17.4733 22.0885 17.9984C22.4437 18.7082 22.6078 19.0359 21.4143 19.8806C19.3418 21.2184 15.0138 21.7265 11.3292 21.7265C7.64463 21.7265 3.13393 21.2184 1.05768 19.8806C-0.244576 19.1017 -0.108714 18.806 0.232231 18.0639C0.476975 17.5312 0.827397 16.7685 0.827397 15.432V12.4821C0.827397 9.52859 1.62426 7.43773 3.22165 6.20953C4.81904 4.85705 7.45821 4.18081 11.1428 4.18081C14.5825 4.18081 17.1632 4.79857 18.8812 6.02676C19.6561 6.58238 20.2556 7.33173 20.6833 8.26384C20.0363 8.11397 19.2065 8.11031 18.194 8.25653C16.8123 8.45392 15.8546 8.80849 15.3172 9.32024C14.7762 9.79178 14.5715 10.49 14.7031 11.4148L14.8347 12.3396C14.9773 13.3411 15.3976 13.9881 16.0995 14.2806C16.7538 14.5803 17.77 14.6278 19.1517 14.4304ZM9.97675 15.3369C11.3146 15.1469 12.2504 14.8142 12.795 14.3427L12.7914 14.3463C13.3287 13.8346 13.5298 13.0999 13.3908 12.1349L13.2593 11.2101C13.1204 10.245 12.7036 9.61632 12.0018 9.32389C11.3036 9.03146 10.3094 8.97663 9.01904 9.16306C7.63732 9.36045 6.67962 9.71502 6.14228 10.2268C5.60129 10.6983 5.39659 11.3965 5.52818 12.3213L5.65977 13.2461C5.80233 14.2477 6.2227 14.8946 6.92453 15.1871C7.57884 15.4868 8.59502 15.5343 9.97675 15.3369Z" fill="url(#paint0_linear_2_270)"/>
<defs>
<linearGradient id="paint0_linear_2_270" x1="9.47494" y1="17.727" x2="174.088" y2="5.92432" gradientUnits="userSpaceOnUse">
<stop stop-color="#6D4D64"/>
<stop offset="1" stop-color="#6D4D64" stop-opacity="0"/>
</linearGradient>
</defs>
</svg>
