<svg width="789" height="171" viewBox="0 0 789 171" fill="none" xmlns="http://www.w3.org/2000/svg">
<path d="M125.883 45.9303C140.147 45.9303 152.16 50.9386 162.05 60.9868C172.098 71.0351 177.107 83.0169 177.107 97.281V169.996H148.198V97.281C148.198 91.0682 146.074 85.8063 141.605 81.432C137.389 77.0894 132.095 74.9656 125.883 74.9656C119.67 74.9656 114.535 77.0894 110.16 81.432C105.786 85.7747 103.567 91.0682 103.567 97.281V169.996H74.2783V97.281C74.2783 91.0682 72.1546 85.8063 67.8119 81.432C63.4693 77.0577 58.1758 74.9656 51.9629 74.9656C45.7501 74.9656 40.7419 77.0894 36.2408 81.432C32.0249 85.7747 29.7744 91.0682 29.7744 97.281V169.996H0.739014V97.281C0.739014 83.0169 5.74729 71.0034 15.7956 60.9868C25.8438 50.9386 37.9841 45.9303 51.9629 45.9303C65.9418 45.9303 78.9062 51.0654 88.9228 61.6525C99.0978 51.0971 111.365 45.9303 125.883 45.9303Z" fill="#6D4D64"/>
<path d="M211.309 151.802C199.168 139.661 192.956 125.017 192.956 107.963C192.956 90.9097 199.168 76.297 211.309 64.2834C223.449 52.0163 237.967 45.9303 254.988 45.9303C272.01 45.9303 286.655 52.0163 298.795 64.2834C310.935 76.297 317.021 90.8146 317.021 107.963C317.021 125.112 310.935 139.63 298.795 151.802C286.655 163.974 272.137 170.028 254.988 170.028C237.84 170.028 223.449 163.942 211.309 151.802ZM232.039 85.0139C225.826 91.3535 222.657 98.9927 222.657 107.995C222.657 116.997 225.826 124.51 232.039 130.976C238.506 137.316 246.176 140.485 255.02 140.485C263.864 140.485 271.662 137.316 278.001 130.976C284.341 124.51 287.511 116.839 287.511 107.995C287.511 99.1512 284.341 91.3535 278.001 85.0139C271.662 78.6743 264.022 75.5045 255.02 75.5045C246.018 75.5045 238.506 78.6743 232.039 85.0139Z" fill="#6D4D64"/>
<path d="M394.554 45.9303C411.449 45.9303 425.967 51.8578 437.981 64.0298C450.121 76.0434 456.08 90.561 456.08 107.583V170.028H426.791V107.583C426.791 98.6123 423.621 91.0682 417.282 84.7603C410.942 78.4524 403.43 75.3777 394.586 75.3777C385.742 75.3777 378.071 78.4207 371.764 84.7603C365.456 91.0999 362.254 98.6123 362.254 107.583V170.028H332.934V107.583C332.934 90.561 339.02 76.0434 351.033 64.0298C363.047 52.0163 377.691 45.9303 394.586 45.9303H394.554Z" fill="#6D4D64"/>
<path d="M490.251 151.802C478.11 139.661 471.898 125.017 471.898 107.963C471.898 90.9097 478.11 76.297 490.251 64.2834C502.391 52.0163 516.909 45.9303 533.931 45.9303C550.952 45.9303 565.597 52.0163 577.737 64.2834C589.877 76.297 595.964 90.8146 595.964 107.963C595.964 125.112 589.877 139.63 577.737 151.802C565.597 163.974 551.079 170.028 533.931 170.028C516.782 170.028 502.391 163.942 490.251 151.802ZM510.981 85.0139C504.769 91.3535 501.599 98.9927 501.599 107.995C501.599 116.997 504.769 124.51 510.981 130.976C517.448 137.316 525.119 140.485 533.962 140.485C542.806 140.485 550.604 137.316 556.943 130.976C563.283 124.51 566.453 116.839 566.453 107.995C566.453 99.1512 563.283 91.3535 556.943 85.0139C550.604 78.6743 542.965 75.5045 533.962 75.5045C524.96 75.5045 517.448 78.6743 510.981 85.0139Z" fill="#6D4D64"/>
<path d="M644.842 62.667H615.68V170.028H644.842V62.667Z" fill="#6D4D64"/>
<path d="M788.592 107.963C788.592 124.985 782.506 139.63 770.239 151.802C758.225 163.942 743.708 170.028 726.559 170.028C709.41 170.028 694.734 163.942 682.594 151.802C670.454 139.661 664.368 125.017 664.368 107.963C664.368 90.9098 670.454 76.1385 682.594 64.125C694.734 51.8579 709.379 45.7719 726.559 45.7719C738.699 45.7719 749.667 48.8149 759.43 55.0277V0H788.592V107.963ZM726.559 75.3461C717.589 75.3461 709.918 78.5159 703.451 84.8555C697.112 91.1951 693.942 98.9928 693.942 107.963C693.942 116.934 697.112 124.478 703.451 130.944C709.918 137.284 717.589 140.454 726.559 140.454C735.53 140.454 743.201 137.284 749.54 130.944C755.88 124.478 758.923 116.807 758.923 107.963C758.923 99.1196 755.88 91.1951 749.54 84.8555C743.201 78.5159 735.561 75.3461 726.559 75.3461Z" fill="#6D4D64"/>
</svg>