<svg width="72" height="68" viewBox="0 0 72 68" fill="none" xmlns="http://www.w3.org/2000/svg">
<path fill-rule="evenodd" clip-rule="evenodd" d="M33.3954 67.0601C45.2773 67.0601 53.8816 64.9884 59.208 60.8451C64.5344 56.2875 67.1975 48.8295 67.1975 38.4713V28.5273C67.1975 18.1691 64.3294 10.9183 58.5933 6.775C52.8572 2.6317 44.2531 0.560059 32.7808 0.560059C24.1963 0.560059 17.3104 1.6716 12.1233 3.89468C16.5401 2.44943 22.0648 1.72681 28.6975 1.72681C39.1975 1.72681 47.0725 3.61673 52.3225 7.39658C57.5725 11.1764 60.1976 17.7912 60.1976 27.2408V36.3125C60.1976 45.7621 57.7601 52.5658 52.8851 56.7237C48.0101 60.5036 40.135 62.3935 29.26 62.3935C18.01 62.3935 9.94752 60.5036 5.07252 56.7237C2.9544 55.1987 1.26355 53.1815 0 50.6721C1.41054 55.1174 3.73332 58.5084 6.96834 60.8451C12.2947 64.9884 21.1037 67.0601 33.3954 67.0601Z" fill="#6D4D64"/>
<path d="M42.3724 30.9388C40.9484 32.4254 38.359 33.6174 34.6042 34.5149C30.7199 35.4434 27.8066 35.5667 25.8643 34.8849C23.7924 34.234 22.4196 32.499 21.7458 29.6801L21.1238 27.078C20.5018 24.4759 20.9028 22.4316 22.3268 20.945C23.7249 19.35 26.3661 18.0883 30.2504 17.1598C33.8757 16.2932 36.7243 16.1854 38.7961 16.8363C40.8679 17.4872 42.2278 19.1679 42.8757 21.8785L43.4977 24.4806C44.1456 27.1911 43.7705 29.3438 42.3724 30.9388Z" fill="#6D4D64"/>
<path d="M68.2839 25.9388C66.8599 27.4254 64.2705 28.6174 60.5157 29.5149C56.6314 30.4434 53.7181 30.5667 51.7758 29.8849C49.7039 29.234 48.3311 27.499 47.6573 24.6801L47.0353 22.078C46.4133 19.4759 46.8143 17.4316 48.2383 15.945C49.6364 14.35 52.2776 13.0883 56.1619 12.1598C59.7872 11.2932 62.6358 11.1854 64.7076 11.8363C66.7794 12.4872 68.1393 14.1679 68.7872 16.8785L69.4092 19.4806C70.0571 22.1911 69.682 24.3438 68.2839 25.9388Z" fill="#6D4D64"/>
</svg>
