<svg width="315" height="71" viewBox="0 0 315 71" fill="none" xmlns="http://www.w3.org/2000/svg">
<path d="M5.08551 3.666C5.83751 3.666 6.62084 3.854 7.43551 4.23C8.25018 4.606 8.87684 5.13867 9.31551 5.828L33.1915 42.206L29.1495 42.018L53.4955 5.828C54.4982 4.38667 55.7828 3.666 57.3495 3.666C58.6028 3.666 59.6995 4.136 60.6395 5.076C61.6422 5.95333 62.1435 7.08133 62.1435 8.46V64.766C62.1435 66.1447 61.7048 67.304 60.8275 68.244C59.9502 69.1213 58.7908 69.56 57.3495 69.56C55.8455 69.56 54.6235 69.1213 53.6835 68.244C52.8062 67.304 52.3675 66.1447 52.3675 64.766V17.108L55.3755 17.766L34.6955 49.256C34.2568 49.82 33.6928 50.3213 33.0035 50.76C32.3142 51.136 31.5935 51.2927 30.8415 51.23C30.1522 51.2927 29.4315 51.136 28.6795 50.76C27.9902 50.3213 27.4262 49.82 26.9875 49.256L7.05951 18.236L9.31551 14.476V64.766C9.31551 66.1447 8.87684 67.304 7.99951 68.244C7.18484 69.1213 6.08818 69.56 4.70951 69.56C3.39351 69.56 2.29684 69.1213 1.41951 68.244C0.604843 67.304 0.19751 66.1447 0.19751 64.766V8.46C0.19751 7.144 0.66751 6.016 1.60751 5.076C2.61018 4.136 3.76951 3.666 5.08551 3.666Z" fill="#6D4D64"/>
<path d="M123.832 44.838C123.832 49.8513 122.736 54.3007 120.542 58.186C118.349 62.0087 115.372 65.0167 111.612 67.21C107.852 69.4033 103.622 70.5 98.9225 70.5C94.2225 70.5 89.9925 69.4033 86.2325 67.21C82.4725 65.0167 79.4645 62.0087 77.2085 58.186C75.0151 54.3007 73.9185 49.8513 73.9185 44.838C73.9185 39.762 75.0151 35.3127 77.2085 31.49C79.4645 27.6047 82.4725 24.5653 86.2325 22.372C89.9925 20.116 94.2225 18.988 98.9225 18.988C103.622 18.988 107.852 20.116 111.612 22.372C115.372 24.5653 118.349 27.6047 120.542 31.49C122.736 35.3127 123.832 39.762 123.832 44.838ZM114.432 44.838C114.432 41.3913 113.743 38.4147 112.364 35.908C110.986 33.3387 109.106 31.3333 106.724 29.892C104.406 28.388 101.805 27.636 98.9225 27.636C96.0398 27.636 93.4078 28.388 91.0265 29.892C88.6451 31.3333 86.7652 33.3387 85.3865 35.908C84.0078 38.4147 83.3185 41.3913 83.3185 44.838C83.3185 48.1593 84.0078 51.1047 85.3865 53.674C86.7652 56.2433 88.6451 58.2487 91.0265 59.69C93.4078 61.1313 96.0398 61.852 98.9225 61.852C101.805 61.852 104.406 61.1313 106.724 59.69C109.106 58.2487 110.986 56.2433 112.364 53.674C113.743 51.1047 114.432 48.1593 114.432 44.838Z" fill="#6D4D64"/>
<path d="M159.946 18.988C164.395 18.988 167.842 19.928 170.286 21.808C172.73 23.6253 174.422 26.1007 175.362 29.234C176.365 32.3047 176.866 35.7513 176.866 39.574V64.766C176.866 66.1447 176.396 67.304 175.456 68.244C174.579 69.1213 173.482 69.56 172.166 69.56C170.787 69.56 169.659 69.1213 168.782 68.244C167.905 67.304 167.466 66.1447 167.466 64.766V39.668C167.466 37.412 167.153 35.4067 166.526 33.652C165.899 31.8347 164.803 30.3933 163.236 29.328C161.732 28.2 159.601 27.636 156.844 27.636C154.275 27.636 152.019 28.2 150.076 29.328C148.133 30.3933 146.598 31.8347 145.47 33.652C144.405 35.4067 143.872 37.412 143.872 39.668V64.766C143.872 66.1447 143.402 67.304 142.462 68.244C141.585 69.1213 140.488 69.56 139.172 69.56C137.793 69.56 136.665 69.1213 135.788 68.244C134.911 67.304 134.472 66.1447 134.472 64.766V24.91C134.472 23.5313 134.911 22.4033 135.788 21.526C136.665 20.586 137.793 20.116 139.172 20.116C140.488 20.116 141.585 20.586 142.462 21.526C143.402 22.4033 143.872 23.5313 143.872 24.91V30.174L142.18 31.114C142.619 29.7353 143.371 28.3567 144.436 26.978C145.564 25.5367 146.911 24.2207 148.478 23.03C150.045 21.7767 151.799 20.8053 153.742 20.116C155.685 19.364 157.753 18.988 159.946 18.988Z" fill="#6D4D64"/>
<path d="M237.293 44.838C237.293 49.8513 236.197 54.3007 234.003 58.186C231.81 62.0087 228.833 65.0167 225.073 67.21C221.313 69.4033 217.083 70.5 212.383 70.5C207.683 70.5 203.453 69.4033 199.693 67.21C195.933 65.0167 192.925 62.0087 190.669 58.186C188.476 54.3007 187.379 49.8513 187.379 44.838C187.379 39.762 188.476 35.3127 190.669 31.49C192.925 27.6047 195.933 24.5653 199.693 22.372C203.453 20.116 207.683 18.988 212.383 18.988C217.083 18.988 221.313 20.116 225.073 22.372C228.833 24.5653 231.81 27.6047 234.003 31.49C236.197 35.3127 237.293 39.762 237.293 44.838ZM227.893 44.838C227.893 41.3913 227.204 38.4147 225.825 35.908C224.447 33.3387 222.567 31.3333 220.185 29.892C217.867 28.388 215.266 27.636 212.383 27.636C209.501 27.636 206.869 28.388 204.487 29.892C202.106 31.3333 200.226 33.3387 198.847 35.908C197.469 38.4147 196.779 41.3913 196.779 44.838C196.779 48.1593 197.469 51.1047 198.847 53.674C200.226 56.2433 202.106 58.2487 204.487 59.69C206.869 61.1313 209.501 61.852 212.383 61.852C215.266 61.852 217.867 61.1313 220.185 59.69C222.567 58.2487 224.447 56.2433 225.825 53.674C227.204 51.1047 227.893 48.1593 227.893 44.838Z" fill="#6D4D64"/>
<path d="M256.769 64.766C256.769 66.1447 256.33 67.304 255.453 68.244C254.576 69.1213 253.448 69.56 252.069 69.56C250.753 69.56 249.625 69.1213 248.685 68.244C247.808 67.304 247.369 66.1447 247.369 64.766V24.534C247.369 23.1553 247.808 22.0273 248.685 21.15C249.625 20.21 250.753 19.74 252.069 19.74C253.448 19.74 254.576 20.21 255.453 21.15C256.33 22.0273 256.769 23.1553 256.769 24.534V64.766Z" fill="#6D4D64"/>
<path d="M309.927 0C311.306 0 312.434 0.438667 313.311 1.316C314.189 2.19333 314.628 3.35267 314.628 4.794V64.766C314.628 66.1447 314.189 67.304 313.311 68.244C312.434 69.1213 311.306 69.56 309.927 69.56C308.611 69.56 307.483 69.1213 306.543 68.244C305.666 67.304 305.228 66.1447 305.228 64.766V57.998L307.202 58.092C307.202 59.22 306.732 60.5047 305.792 61.946C304.914 63.3247 303.692 64.672 302.125 65.988C300.559 67.304 298.71 68.4007 296.579 69.278C294.449 70.0927 292.161 70.5 289.717 70.5C285.393 70.5 281.508 69.4033 278.061 67.21C274.615 64.954 271.889 61.9147 269.883 58.092C267.878 54.2067 266.875 49.7573 266.875 44.744C266.875 39.7307 267.878 35.3127 269.883 31.49C271.889 27.6047 274.583 24.5653 277.967 22.372C281.414 20.116 285.237 18.988 289.435 18.988C292.067 18.988 294.511 19.4267 296.767 20.304C299.086 21.1813 301.092 22.3093 302.784 23.688C304.475 25.0667 305.792 26.5393 306.732 28.106C307.672 29.61 308.142 31.0513 308.142 32.43L305.228 32.712V4.794C305.228 3.41533 305.666 2.28733 306.543 1.41C307.483 0.470001 308.611 0 309.927 0ZM290.751 61.852C293.759 61.852 296.36 61.1 298.553 59.596C300.81 58.092 302.564 56.0553 303.818 53.486C305.071 50.9167 305.698 48.0027 305.698 44.744C305.698 41.4853 305.071 38.5713 303.818 36.002C302.564 33.4327 300.81 31.396 298.553 29.892C296.297 28.388 293.697 27.636 290.751 27.636C287.869 27.636 285.299 28.388 283.043 29.892C280.85 31.396 279.096 33.4327 277.78 36.002C276.526 38.5713 275.9 41.4853 275.9 44.744C275.9 48.0027 276.526 50.9167 277.78 53.486C279.096 56.0553 280.85 58.092 283.043 59.596C285.299 61.1 287.869 61.852 290.751 61.852Z" fill="#6D4D64"/>
</svg>
