<svg width="194" height="154" viewBox="0 0 194 154" fill="none" xmlns="http://www.w3.org/2000/svg">
<path d="M186.078 84.1268C181.292 86.6627 174.635 88.5646 166.077 89.8008C154.095 91.5125 145.283 91.1004 139.609 88.5012C133.523 85.9653 129.878 80.3548 128.642 71.6695L127.5 63.65C126.359 55.6304 128.134 49.5761 132.826 45.487C137.485 41.0493 145.79 37.9746 157.772 36.2629C166.552 34.995 173.748 35.0267 179.358 36.3263C175.65 28.2433 170.451 21.7452 163.731 16.9272C148.833 6.27664 126.454 0.919678 96.6266 0.919678C64.675 0.919678 41.7891 6.7838 27.9371 18.5121C14.0851 29.1626 7.17491 47.2938 7.17491 72.9058V98.486C7.17491 126.222 -10.2273 125.461 9.17188 137.062C27.1763 148.664 66.2916 153.07 98.2432 153.07C130.195 153.07 167.725 148.664 185.698 137.062C203.702 124.32 186.078 125.144 186.078 98.486V84.1586V84.1268ZM110.954 89.04C106.231 93.1291 98.1164 96.0136 86.5149 97.6619C74.5331 99.3736 65.7211 98.9615 60.0471 96.3623C53.9611 93.8264 50.3158 88.2159 49.0796 79.5306L47.9385 71.5111C46.7974 63.4915 48.5725 57.4372 53.2638 53.3481C57.9234 48.9104 66.2282 45.8357 78.2101 44.124C89.3994 42.5074 98.0213 42.9829 104.076 45.5187C110.162 48.0546 113.775 53.5066 114.98 61.8749L116.121 69.8945C117.325 78.2627 115.582 84.634 110.922 89.0717L110.954 89.04Z" fill="#6D4D64"/>
</svg>